<?xml version="1.0" encoding="UTF-8"?>
<svg width="154px" height="52px" viewBox="0 0 154 52" version="1.1" xmlns="http://www.w3.org/2000/svg" xmlns:xlink="http://www.w3.org/1999/xlink">
    <!-- Generator: Sketch 55.2 (78181) - https://sketchapp.com -->
    <title>mpyaSci&amp;Tech_logo_original</title>
    <desc>Created with Sketch.</desc>
    <g id="Symbols" stroke="none" stroke-width="1" fill="none" fill-rule="evenodd">
        <g id="MD/nav" transform="translate(-130.000000, -24.000000)" fill="#9B1889" fill-rule="nonzero">
            <g id="nav">
                <g id="Group-17">
                    <g id="mpyaSci&amp;Tech_logo_original" transform="translate(130.000000, 24.000000)">
                        <path d="M24.755144,50.2687747 C24.5967078,50.6442688 24.3734568,50.9565217 24.0889918,51.2134387 C23.8045267,51.4664032 23.4624486,51.6640316 23.0699588,51.798419 C22.6738683,51.9328063 22.2381687,52 21.7556584,52 C21.0823045,52 20.4197531,51.8735178 19.7716049,51.6166008 C19.1234568,51.3636364 18.5329218,50.972332 18,50.4426877 L19.1522634,48.9288538 C19.5555556,49.2885375 19.973251,49.5770751 20.3981481,49.7905138 C20.8230453,50.0039526 21.2911523,50.1106719 21.7952675,50.1106719 C22.1985597,50.1106719 22.5154321,50.0316206 22.7386831,49.8695652 C22.9619342,49.7075099 23.0735597,49.4822134 23.0735597,49.1976285 L23.0735597,49.1699605 C23.0735597,49.0316206 23.0519547,48.9090909 23.005144,48.8023715 C22.9583333,48.6956522 22.8683128,48.5968379 22.7386831,48.5019763 C22.6090535,48.4110672 22.4254115,48.3162055 22.1949588,48.2252964 C21.9609053,48.1343874 21.662037,48.0355731 21.2875514,47.9328063 C20.8410494,47.8142292 20.4341564,47.6798419 20.0704733,47.5296443 C19.7067901,47.3833992 19.3971193,47.1976285 19.1450617,46.9802372 C18.8930041,46.7628458 18.6949588,46.4940711 18.5545267,46.1699605 C18.4140947,45.8458498 18.345679,45.4426877 18.345679,44.9604743 L18.345679,44.9328063 C18.345679,44.4901186 18.4212963,44.0869565 18.5725309,43.7312253 C18.7237654,43.3754941 18.936214,43.0671937 19.2062757,42.8063241 C19.4763374,42.5454545 19.8040123,42.3478261 20.1820988,42.2094862 C20.5601852,42.0711462 20.9778807,42 21.4315844,42 C22.0797325,42 22.6774691,42.1067194 23.2211934,42.3201581 C23.7649177,42.5335968 24.2654321,42.8379447 24.7191358,43.2371542 L23.7073045,44.8458498 C23.311214,44.5494071 22.9223251,44.3162055 22.5442387,44.1462451 C22.1661523,43.9762846 21.784465,43.8893281 21.4063786,43.8893281 C21.0282922,43.8893281 20.7438272,43.9683794 20.5529835,44.1304348 C20.3621399,44.2924901 20.2685185,44.4940711 20.2685185,44.7351779 L20.2685185,44.7628458 C20.2685185,44.9209486 20.2973251,45.055336 20.3513374,45.173913 C20.4053498,45.2885375 20.5061728,45.3952569 20.6502058,45.486166 C20.7942387,45.5770751 20.9886831,45.6679842 21.2407407,45.7509881 C21.4891975,45.8339921 21.80607,45.9328063 22.1841564,46.0434783 C22.6306584,46.173913 23.0303498,46.3201581 23.3832305,46.4822134 C23.7325103,46.6442688 24.0313786,46.8379447 24.2726337,47.0671937 C24.5138889,47.2924901 24.69393,47.5612648 24.816358,47.8656126 C24.938786,48.1699605 25,48.5375494 25,48.9604743 L25,48.9881423 C24.9963992,49.4664032 24.9135802,49.8932806 24.755144,50.2687747 Z" id="Path"></path>
                        <path d="M39.2986784,50.9889851 C39.0590308,51.2014162 38.7982379,51.3823761 38.5127753,51.5357986 C38.2273128,51.6892211 37.9171806,51.8033045 37.5788546,51.8819827 C37.2405286,51.9606609 36.8599119,52 36.4405286,52 C35.8061674,52 35.2140969,51.870181 34.6713656,51.6144768 C34.1251101,51.3548387 33.6563877,51.0047207 33.261674,50.5562549 C32.8669604,50.1077891 32.5568282,49.5806452 32.3348018,48.974823 C32.1127753,48.3650669 32,47.7159717 32,47.0275374 L32,47 C32,46.3076318 32.1127753,45.6624705 32.3348018,45.0605822 C32.5568282,44.4586939 32.8669604,43.9276161 33.261674,43.4712825 C33.6563877,43.0149489 34.1321586,42.656963 34.6854626,42.393391 C35.2387665,42.129819 35.8484581,42 36.5180617,42 C36.923348,42 37.2933921,42.0354052 37.6246696,42.1101495 C37.9594714,42.1848938 38.2625551,42.2832415 38.5339207,42.4130606 C38.8052863,42.5428796 39.0590308,42.700236 39.2881057,42.8811959 C39.5207048,43.0660897 39.7321586,43.2667191 39.9330396,43.490952 L38.7207048,45.0527144 C38.3823789,44.7104642 38.0370044,44.4429583 37.6881057,44.2501967 C37.3356828,44.0574351 36.9444934,43.9590873 36.507489,43.9590873 C36.1444934,43.9590873 35.8096916,44.0377655 35.4995595,44.195122 C35.1894273,44.3524784 34.9251101,44.5688434 34.6995595,44.8442172 C34.477533,45.1195909 34.3048458,45.4421715 34.1779736,45.8040913 C34.0546256,46.1699449 33.9911894,46.5554681 33.9911894,46.9724626 L33.9911894,47 C33.9911894,47.4130606 34.0546256,47.8064516 34.1779736,48.1762392 C34.3013216,48.5460268 34.4740088,48.8686074 34.692511,49.1439811 C34.9110132,49.4193548 35.1753304,49.6396538 35.4854626,49.8009441 C35.7955947,49.9622345 36.1339207,50.0409127 36.507489,50.0409127 C37.0008811,50.0409127 37.4202643,49.938631 37.7656388,49.7380016 C38.107489,49.5373721 38.4493392,49.2580645 38.7876652,48.9079465 L40,50.2769473 C39.7709251,50.5365854 39.538326,50.7765539 39.2986784,50.9889851 Z" id="Path"></path>
                        <polygon id="Path" points="48 52 48 42 50 42 50 52"></polygon>
                        <path d="M69.5738662,52 L68.5536596,50.871031 C68.1908397,51.1924735 67.7992815,51.4511956 67.3753929,51.6471972 C66.9515043,51.8431987 66.480916,51.9411995 65.9672205,51.9411995 C65.5469241,51.9411995 65.155366,51.878479 64.792546,51.749118 C64.4297261,51.619757 64.117198,51.4355155 63.8513696,51.1924735 C63.5855411,50.9494316 63.377189,50.6554292 63.2263134,50.3104665 C63.0754378,49.9655037 63,49.5774206 63,49.1462172 C63,48.5229322 63.1472833,47.9937279 63.44185,47.5546844 C63.7364167,47.119561 64.1603053,46.7628381 64.7171082,46.4884359 C64.4979793,46.1473932 64.3399192,45.8259506 64.2429277,45.5162681 C64.1459362,45.2105057 64.0992366,44.8851431 64.0992366,44.5441004 C64.0992366,44.2148177 64.1567131,43.8933751 64.2752582,43.5876127 C64.3938033,43.2818503 64.5662326,43.0074481 64.792546,42.7761662 C65.0188595,42.5409643 65.299057,42.3528028 65.6331388,42.2116817 C65.9636282,42.0705606 66.3444095,42 66.7754827,42 C67.1526718,42 67.493938,42.0627205 67.7956893,42.1842415 C68.0974405,42.3096825 68.3596767,42.4782438 68.5788056,42.7016856 C68.7979344,42.9212074 68.9667714,43.1799294 69.0817243,43.4778518 C69.2002694,43.7757742 69.2577458,44.0972168 69.2577458,44.4343395 C69.2577458,45.0850647 69.0853166,45.6142689 68.740458,46.0180321 C68.3955995,46.4217954 67.9501572,46.7393179 67.4041311,46.9666797 L68.5788056,48.24853 C68.7224966,48.001568 68.8661877,47.7350059 69.0062865,47.4566837 C69.1499775,47.1783614 69.2936686,46.8882791 69.4337674,46.5942768 L70.8599012,47.4488436 C70.6910642,47.7898863 70.5114504,48.130929 70.3174674,48.4798118 C70.1234845,48.8286946 69.9187247,49.1618973 69.6995959,49.4833399 L71,50.9023912 L69.5738662,52 Z M65.7768298,47.7859663 C65.4822631,47.9506076 65.2739111,48.1466092 65.1445891,48.370051 C65.0188595,48.5934927 64.9541985,48.8247746 64.9541985,49.0638965 C64.9541985,49.4127793 65.0691513,49.6911015 65.3026493,49.8949432 C65.532555,50.1027048 65.830714,50.2046256 66.1935339,50.2046256 C66.4126628,50.2046256 66.6281994,50.1575853 66.843736,50.0595845 C67.0592726,49.9615837 67.2676246,49.8283026 67.4687921,49.6519012 L65.7768298,47.7859663 Z M67.3358779,43.8894551 C67.18141,43.7326539 66.9802425,43.6542532 66.7359677,43.6542532 C66.4737315,43.6542532 66.2653794,43.744414 66.1109115,43.9286554 C65.9564436,44.1128969 65.8774136,44.3520188 65.8774136,44.6460212 C65.8774136,44.8655429 65.9169286,45.0654645 65.9959587,45.245786 C66.0749888,45.4261074 66.207903,45.629949 66.3947014,45.8573109 C66.7826673,45.7005096 67.0736417,45.5241082 67.2712169,45.3281066 C67.4687921,45.1321051 67.5693758,44.877303 67.5693758,44.5637005 C67.5693758,44.2736182 67.4903458,44.0462564 67.3358779,43.8894551 Z" id="Shape"></path>
                        <polygon id="Path" points="84.4295533 44.0292802 84.4295533 52 82.5704467 52 82.5704467 44.0292802 80 44.0292802 80 42 87 42 87 44.0292802"></polygon>
                        <polygon id="Path" points="95 52 95 42 101.932584 42 101.932584 43.9560797 97 43.9560797 97 45.9853599 101.340824 45.9853599 101.340824 47.9414396 97 47.9414396 97 50.0398536 102 50.0398536 102 51.9959333 95 51.9959333"></polygon>
                        <path d="M116.298678,50.9889851 C116.059031,51.2014162 115.798238,51.3823761 115.512775,51.5357986 C115.227313,51.6892211 114.917181,51.8033045 114.578855,51.8819827 C114.240529,51.9606609 113.859912,52 113.440529,52 C112.806167,52 112.214097,51.870181 111.671366,51.6144768 C111.12511,51.3548387 110.656388,51.0047207 110.261674,50.5562549 C109.86696,50.1077891 109.556828,49.5806452 109.334802,48.974823 C109.112775,48.3650669 109,47.7159717 109,47.0275374 L109,47 C109,46.3076318 109.112775,45.6624705 109.334802,45.0605822 C109.556828,44.4586939 109.86696,43.9276161 110.261674,43.4712825 C110.656388,43.0149489 111.132159,42.656963 111.685463,42.393391 C112.238767,42.129819 112.848458,42 113.518062,42 C113.923348,42 114.293392,42.0354052 114.62467,42.1101495 C114.959471,42.1848938 115.262555,42.2832415 115.533921,42.4130606 C115.805286,42.5428796 116.059031,42.700236 116.288106,42.8811959 C116.520705,43.0660897 116.732159,43.2667191 116.93304,43.490952 L115.720705,45.0527144 C115.382379,44.7104642 115.037004,44.4429583 114.688106,44.2501967 C114.335683,44.0574351 113.944493,43.9590873 113.507489,43.9590873 C113.144493,43.9590873 112.809692,44.0377655 112.499559,44.195122 C112.189427,44.3524784 111.92511,44.5688434 111.699559,44.8442172 C111.477533,45.1195909 111.304846,45.4421715 111.181498,45.8040913 C111.05815,46.1699449 110.994714,46.5554681 110.994714,46.9724626 L110.994714,47 C110.994714,47.4130606 111.05815,47.8064516 111.181498,48.1762392 C111.304846,48.5460268 111.477533,48.8686074 111.696035,49.1439811 C111.914537,49.4193548 112.178855,49.6396538 112.488987,49.8009441 C112.799119,49.9622345 113.137445,50.0409127 113.511013,50.0409127 C114.004405,50.0409127 114.423789,49.938631 114.765639,49.7380016 C115.107489,49.5373721 115.449339,49.2580645 115.787665,48.9079465 L117,50.2769473 C116.770925,50.5365854 116.538326,50.7765539 116.298678,50.9889851 Z" id="Path"></path>
                        <polygon id="Path" points="130.91823 52 130.91823 47.9861732 127.08177 47.9861732 127.08177 52 125 52 125 42 127.08177 42 127.08177 45.956893 130.91823 45.956893 130.91823 42 133 42 133 52"></polygon>
                        <g id="Group">
                            <polygon id="Path" points="21.0836744 30.1424176 4.32274419 0.257472527 0.247116279 0.257472527 0.247116279 32.9601099 3.71390698 32.9601099 3.71390698 6.37516484 18.6984651 32.9782418 23.4760465 32.9782418 38.5573023 6.22285714 38.5573023 32.9601099 42.024093 32.9601099 42.024093 0.257472527 37.9305581 0.257472527"></polygon>
                            <path d="M66.7966047,0.268351648 L51.1817209,0.261098901 L51.1817209,32.9818681 L54.6485116,32.9818681 L54.6485116,24.6810989 L66.7966047,24.6810989 C73.9164186,24.6810989 79.7111163,19.2052747 79.7111163,12.4783516 C79.7111163,5.75142857 73.9164186,0.268351648 66.7966047,0.268351648 Z M66.7966047,21.1671429 L54.6485116,21.1671429 L54.6485116,3.77868132 L66.7966047,3.77868132 C72.0075349,3.77868132 76.2443256,7.67703297 76.2443256,12.4710989 C76.2443256,17.2651648 72.0075349,21.1671429 66.7966047,21.1671429 Z" id="Shape"></path>
                            <polygon id="Path" points="111.384977 0.257472527 99.5735349 20.8879121 87.7656744 0.257472527 83.758093 0.257472527 97.8401395 24.8587912 97.8401395 32.9782418 101.30693 32.9782418 101.30693 24.8587912 115.392558 0.257472527"></polygon>
                            <polygon id="Path" points="135.03293 0.257472527 131.07907 0.257472527 112.348372 32.9782418 116.355953 32.9782418 133.056 3.80769231 149.763209 32.9782418 153.774372 32.9782418"></polygon>
                            <path d="M133.063163,23.8978022 C131.745209,23.8978022 130.677953,24.9784615 130.677953,26.312967 C130.677953,27.6474725 131.745209,28.7281319 133.063163,28.7281319 C134.381116,28.7281319 135.448372,27.6474725 135.448372,26.312967 C135.448372,24.9820879 134.381116,23.8978022 133.063163,23.8978022 Z" id="Path"></path>
                        </g>
                    </g>
                </g>
            </g>
        </g>
    </g>
</svg>