<?xml version="1.0" encoding="UTF-8"?><svg id="a" xmlns="http://www.w3.org/2000/svg" viewBox="0 0 411.24 142.25"><defs><style>.b{fill:#a5a7a8;}</style></defs><polygon class="b" points="65.04 64.93 65.04 75.01 65.04 132.18 0 132.18 0 142.25 65.04 142.25 75.11 142.25 75.11 132.18 75.11 75.01 140.16 75.01 140.16 64.93 75.11 64.94 65.04 64.93"/><polygon class="b" points="401.17 64.93 401.17 125.83 341.16 65.02 334.04 72.14 394.88 132.18 268.99 132.18 268.99 142.25 411.24 142.25 411.24 142.24 411.24 132.18 411.24 64.93 401.17 64.93"/><polygon class="b" points="231.2 72.17 224.08 65.05 164.04 125.89 164.04 0 153.97 0 153.97 142.25 153.98 142.25 164.04 142.25 231.29 142.25 231.29 132.18 170.4 132.18 231.2 72.17"/><polygon class="b" points="320.22 64.93 255.17 64.94 245.1 64.93 245.1 75.01 245.1 142.25 255.17 142.25 255.17 75.01 320.22 75.01 320.22 64.93"/></svg>